<svg height="511pt" viewBox="0 -45 511.99967 511" width="511pt" xmlns="http://www.w3.org/2000/svg"><path d="m504.6875 176.328125-227.8125-136.058594c-12.878906-7.691406-28.875-7.691406-41.75 0l-39.046875 23.316407v-31.558594c.003906-17.382813-14.28125-31.527344-31.839844-31.527344h-21.910156c-17.558594 0-31.839844 14.144531-31.839844 31.527344v82.679687l-103.179687 61.621094c-7.109375 4.246094-9.433594 13.457031-5.183594 20.570313 4.246094 7.109374 13.453125 9.433593 20.570312 5.183593l17.378907-10.378906v198.796875h-5.339844c-8.285156 0-15 6.714844-15 15s6.714844 15 15 15h442.53125c8.285156 0 15-6.714844 15-15s-6.714844-15-15-15h-5.339844v-198.796875l17.378907 10.378906c2.410156 1.441407 5.0625 2.125 7.679687 2.125 5.105469 0 10.082031-2.605469 12.890625-7.308593 4.25-7.113282 1.925781-16.324219-5.1875-20.570313zm-364.199219-144.300781c0-.828125.839844-1.527344 1.839844-1.527344h21.910156c1 0 1.84375.699219 1.84375 1.527344v49.476562l-25.59375 15.285156zm301.4375 358.472656h-371.851562v-216.714844l180.433593-107.761718c3.386719-2.023438 7.59375-2.023438 10.980469 0l180.4375 107.761718zm0 0"/><path d="m145.175781 215.714844h-24.800781c-10.996094 0-19.941406 8.945312-19.941406 19.941406v74.570312c0 8.28125 6.714844 15 15 15s15-6.71875 15-15v-15.742187l11.035156 22.375c2.613281 5.296875 7.933594 8.367187 13.464844 8.367187 2.230468 0 4.492187-.496093 6.625-1.546874 7.429687-3.667969 10.480468-12.660157 6.816406-20.089844l-9.34375-18.941406c6.796875-2.691407 11.613281-9.328126 11.613281-17.066407v-26.402343c0-14.039063-11.425781-25.464844-25.46875-25.464844zm-4.53125 40.210937h-4.789062c-.222657-.003906-.441407-.003906-.664063 0h-4.757812v-10.210937h10.210937zm0 0"/><path d="m229.769531 245.714844c8.285157 0 15-6.714844 15-15s-6.714843-15-15-15h-19.828125c-14.101562 0-25.570312 11.472656-25.570312 25.570312v59.28125c0 14.101563 11.46875 25.570313 25.570312 25.570313h19.828125c8.285157 0 15-6.714844 15-15 0-8.28125-6.714843-15-15-15h-15.398437v-10.210938h15.398437c8.285157 0 15-6.714843 15-15 0-8.285156-6.714843-15-15-15h-15.398437v-10.210937zm0 0"/><path d="m258.8125 311.140625c0 8.28125 6.71875 15 15 15 8.285156 0 15-6.71875 15-15v-17.726563l12.046875 23.734376c3.179687 6.320312 10.203125 9.597656 17.082031 7.960937 6.882813-1.632813 11.6875-7.710937 11.6875-14.785156v-79.609375c0-8.285156-6.714844-15-15-15s-15 6.714844-15 15v17.722656l-12.074218-23.792969c-3.195313-6.289062-10.226563-9.542969-17.085938-7.894531-6.863281 1.644531-11.65625 7.722656-11.65625 14.777344zm0 0"/><path d="m358.117188 246.4375h5.222656v64.699219c0 8.285156 6.71875 15 15 15 8.285156 0 15-6.714844 15-15v-64.699219h5.226562c8.285156 0 15-6.714844 15-15 0-8.28125-6.714844-15-15-15h-40.449218c-8.28125 0-15 6.71875-15 15 0 8.285156 6.714843 15 15 15zm0 0"/></svg>